<?xml version="1.0" encoding="UTF-8"?>
<svg id="Vrstva_1" xmlns="http://www.w3.org/2000/svg" version="1.1" viewBox="0 0 218.27 218.27">
  <!-- Generator: Adobe Illustrator 29.4.0, SVG Export Plug-In . SVG Version: 2.1.0 Build 152)  -->
  <defs>
    <style>
      .st0 {
        fill: #7965a0;
      }
    </style>
  </defs>
  <g>
    <polygon class="st0" points="62.55 125.35 55.52 119.84 55.31 119.84 55.31 134.64 58.63 134.64 58.63 126.09 62.45 129.33 62.54 129.33 66.32 126.09 66.32 134.64 69.63 134.64 69.63 119.84 69.42 119.84 62.55 125.35"/>
    <path class="st0" d="M83.32,129.65c-.36.65-.87,1.17-1.51,1.54-.64.38-1.39.57-2.25.57s-1.56-.19-2.22-.57c-.65-.38-1.16-.89-1.53-1.54-.37-.65-.56-1.4-.56-2.26s.19-1.62.56-2.27.88-1.15,1.53-1.53c.65-.38,1.39-.57,2.22-.57s1.6.19,2.25.57c.64.38,1.15.89,1.51,1.53.36.64.55,1.4.55,2.27s-.18,1.61-.55,2.26M85.19,121.89c-.7-.68-1.52-1.2-2.47-1.57-.94-.37-2-.56-3.16-.56s-2.2.19-3.15.56c-.95.37-1.77.9-2.47,1.57-.69.68-1.23,1.49-1.61,2.42-.38.94-.57,1.97-.57,3.09s.19,2.15.57,3.09c.38.94.91,1.75,1.61,2.42.69.68,1.52,1.2,2.47,1.58.95.37,2,.56,3.15.56s2.22-.19,3.16-.56c.94-.37,1.77-.9,2.47-1.58.7-.68,1.24-1.49,1.62-2.42.38-.94.57-1.97.57-3.09s-.19-2.15-.57-3.09c-.38-.94-.92-1.75-1.62-2.42"/>
    <polygon class="st0" points="92.87 120.15 89.51 120.15 89.51 152.8 99.24 152.8 99.24 149.71 92.87 149.71 92.87 120.15"/>
    <polygon class="st0" points="98.75 129.65 104.4 129.65 104.4 129.62 104.41 129.62 104.41 126.75 98.75 126.75 98.75 123.27 103.65 123.27 103.65 123.24 103.66 123.24 103.66 120.15 95.41 120.15 95.41 120.18 95.4 120.18 95.4 134.67 105.52 134.67 105.52 134.64 105.53 134.64 105.53 131.55 98.75 131.55 98.75 129.65"/>
    <rect class="st0" x="101.04" y="138.17" width="3.36" height="14.49"/>
    <polygon class="st0" points="110.43 141.26 115.53 141.26 115.53 138.17 107.07 138.17 107.07 152.66 110.43 152.66 110.43 148.04 116.26 148.04 116.26 145.04 110.43 145.04 110.43 141.26"/>
    <polygon class="st0" points="121.72 147.64 127.39 147.64 127.39 144.76 121.72 144.76 121.72 141.26 126.63 141.26 126.63 138.17 118.38 138.17 118.38 152.66 128.5 152.66 128.5 149.57 121.72 149.57 121.72 147.64"/>
    <path class="st0" d="M80.44,145.46c-.25.45-.6.8-1.04,1.04s-.95.37-1.53.37-1.07-.12-1.51-.37c-.44-.24-.79-.59-1.04-1.04-.25-.45-.38-.98-.38-1.57s.12-1.12.38-1.57c.25-.45.59-.8,1.04-1.05.44-.25.95-.38,1.51-.38s1.09.13,1.53.38c.44.25.79.6,1.04,1.05.25.45.37.98.37,1.57s-.12,1.12-.37,1.57M79.69,140.82c-.52-.3-1.13-.45-1.82-.45s-1.28.15-1.81.45c-.53.3-.94.71-1.24,1.24-.3.53-.45,1.13-.45,1.83s.15,1.28.45,1.81c.3.53.71.95,1.24,1.25.53.3,1.13.46,1.81.46s1.29-.15,1.82-.46c.52-.3.94-.72,1.24-1.25.3-.53.45-1.13.45-1.81s-.15-1.31-.45-1.83c-.3-.52-.71-.94-1.24-1.24"/>
    <path class="st0" d="M85.41,136.58c-.6,0-1.07.21-1.41.63-.34.42-.51,1.01-.51,1.75v1.59h-1.37v.49h1.37v6.18h.56v-6.18h1.79v-.49h-1.79v-1.56c0-.61.12-1.08.37-1.41.24-.33.59-.49,1.03-.49.07,0,.14,0,.21,0,.07,0,.13.02.19.04v-.51c-.08-.02-.15-.03-.23-.04-.07,0-.14,0-.21,0"/>
    <path class="st0" d="M115.17,131.54c-.98,0-1.84-.17-2.57-.52-.74-.35-1.31-.84-1.72-1.48-.41-.64-.62-1.37-.62-2.21s.21-1.54.62-2.13c.41-.59,1-1.06,1.75-1.39.76-.33,1.64-.49,2.64-.49.22,0,.45.01.68.03.23.02.41.05.54.07v-3.23c-.17-.03-.38-.06-.64-.08-.26-.03-.5-.04-.72-.04-1.74,0-3.25.3-4.54.9-1.29.6-2.28,1.45-2.98,2.55-.7,1.1-1.05,2.38-1.05,3.85s.35,2.82,1.04,3.94c.69,1.11,1.66,1.97,2.91,2.58,1.25.61,2.7.91,4.37.91.36,0,.69-.01.98-.04.29-.03.54-.06.74-.1v-3.21c-.13.03-.32.05-.59.07-.27.02-.55.03-.84.03"/>
    <path class="st0" d="M126.09,129.25c0,.84-.18,1.48-.55,1.91-.36.43-.9.65-1.6.65s-1.23-.22-1.58-.65c-.36-.43-.54-1.07-.54-1.91v-9.07h-3.36v9.3c0,1.19.21,2.2.63,3.04.42.84,1.04,1.47,1.86,1.9.82.43,1.82.64,2.99.64s2.19-.21,3.01-.64c.82-.43,1.44-1.06,1.86-1.9.42-.84.63-1.85.63-3.04v-9.3h-3.36v9.07Z"/>
    <polygon class="st0" points="135.35 120.18 131.99 120.18 131.99 134.67 141.71 134.67 141.71 131.58 135.35 131.58 135.35 120.18"/>
    <polygon class="st0" points="146.9 129.65 152.56 129.65 152.56 126.77 146.9 126.77 146.9 123.27 151.81 123.27 151.81 120.18 143.56 120.18 143.56 134.67 153.68 134.67 153.68 131.58 146.9 131.58 146.9 129.65"/>
    <path class="st0" d="M166.32,120.1c-.2-.03-.41-.04-.63-.04-.9,0-1.68.16-2.34.47-.67.31-1.26.83-1.78,1.55-.53.72-1.04,1.69-1.54,2.91l-1.55,3.82c-.27.67-.54,1.21-.83,1.62-.29.41-.61.7-.97.87-.36.18-.77.26-1.23.26-.15,0-.3,0-.43-.03-.13-.02-.23-.04-.3-.05v3.15c.2.06.42.1.67.13.25.03.51.04.78.04.92,0,1.71-.15,2.37-.46.66-.31,1.25-.83,1.77-1.55.52-.73,1.04-1.7,1.54-2.92l1.55-3.82c.42-1.01.85-1.72,1.29-2.13.44-.41.98-.62,1.61-.62.08,0,.17,0,.26.01.09,0,.16.02.22.03v-3.15c-.11-.03-.27-.06-.46-.08"/>
    <path class="st0" d="M174.89,70.44c-.28-.32-.57-.63-.88-.91l-.12-.11-.12-.1c-.08-.07-.16-.14-.24-.21-.16-.13-.32-.27-.49-.39-.17-.13-.33-.25-.51-.37-.17-.12-.34-.23-.52-.34-.35-.22-.71-.43-1.08-.62-.18-.1-.37-.19-.56-.27-.1-.04-.19-.09-.29-.13l-.15-.06-.08-.03-.09-.03-1.43-.55.41,1.47c.06.23.11.46.14.7.03.24.05.48.06.73,0,.25,0,.5-.02.75-.02.25-.04.51-.07.77-.03.26-.07.52-.11.78-.04.26-.09.53-.14.8l-.14.81c-.05.27-.09.55-.13.82-.04.28-.07.56-.1.84-.02.28-.04.57-.04.86s0,.58.03.87c.02.29.06.58.12.86.06.29.13.57.23.84.09.28.21.54.34.8.13.26.28.51.44.74.16.24.34.46.52.68l-.02-.03c.05.07.1.14.15.21l.08.1s.05.07.08.1l.08.09s.06.06.09.09c.06.06.12.12.18.17.06.05.12.11.18.16.06.05.12.11.18.16l.19.15.19.15.19.14c.06.05.13.09.2.14.07.04.13.09.2.13.07.04.13.09.2.13.07.04.14.08.2.12.07.04.14.08.2.12.07.04.14.08.21.12.07.04.14.08.21.11l-.18-.15-.18-.15c-.06-.05-.12-.1-.18-.15-.06-.05-.12-.1-.18-.15-.06-.05-.12-.1-.18-.16-.06-.05-.12-.11-.17-.16l-.17-.16-.17-.16-.16-.17-.16-.17c-.05-.06-.1-.11-.15-.17-.05-.06-.1-.12-.15-.18-.05-.06-.09-.12-.14-.18-.02-.03-.04-.06-.07-.09l-.06-.09c-.04-.06-.08-.13-.12-.19-.04-.06-.07-.13-.1-.19l-.02-.03c-.15-.22-.28-.44-.4-.68-.12-.23-.23-.47-.32-.71-.09-.24-.16-.48-.22-.73-.06-.25-.1-.5-.13-.75-.03-.25-.04-.51-.04-.76,0-.26.02-.51.04-.77.02-.26.06-.51.1-.77.04-.26.09-.52.15-.78.05-.26.11-.52.18-.78l.19-.79c.06-.27.13-.53.19-.81.06-.27.12-.55.17-.83.05-.28.09-.56.13-.85.03-.29.05-.58.06-.88,0-.09,0-.19,0-.28.24.14.48.29.71.44.16.1.31.21.46.32.15.11.3.22.44.33.15.11.29.23.43.35.07.06.14.12.21.18l.1.09.1.09c.27.25.52.51.75.79.23.27.45.56.65.86.2.3.38.61.53.92.15.32.28.65.39.98s.19.68.24,1.03c.05.35.08.7.09,1.06v.27s-.01.26-.01.26l-.02.29-.02.29v.15s-.02.06-.02.06v.06s-.01.06-.01.06v.06s-.02.08-.03.13l-.02.13-.03.13c-.02.09-.04.17-.06.26-.09.35-.2.7-.32,1.05l-.1.26c-.03.09-.07.17-.11.26-.07.17-.15.34-.22.52l-.03.06-.03.06-.06.13-.12.26-.13.25c-.04.08-.09.17-.13.25,0,0,0,0,0,0-.02-.04-.03-.08-.05-.11-.09-.2-.18-.4-.26-.6l-.12-.3-.12-.3-.12-.31-.11-.31-.11-.31-.1-.31-.1-.31-.1-.31-.09-.31-.09-.32-.08-.32-.08-.32-.07-.32-.07-.32c-.02-.11-.04-.22-.06-.32-.02-.11-.04-.22-.06-.32-.04-.22-.07-.43-.1-.65-.02-.11-.03-.22-.04-.33l-.02-.16-.02-.16-.02-.16v-.16c-.02-.11-.03-.22-.03-.33-.01-.22-.02-.44-.02-.66,0-.11,0-.22,0-.33v-.34s-.06.33-.06.33c-.02.11-.04.22-.06.33-.03.22-.06.44-.09.67,0,.06-.01.11-.02.17v.17s-.03.17-.03.17v.17s-.02.17-.02.17v.17c0,.11-.01.23-.01.34,0,.23,0,.45,0,.68,0,.11,0,.23.02.34,0,.11.01.23.02.34l.03.34c.01.11.02.23.03.34l.04.34.05.34.05.34.06.34.07.33.07.33c.03.11.05.22.08.33l.08.33.09.33.09.33.1.33c.03.11.07.22.1.32.07.22.14.43.22.65.04.11.08.21.12.32.04.11.08.21.12.32.08.21.17.42.26.63l.42,1.03.64-.95.34-.5c.11-.17.22-.34.33-.51.11-.17.21-.35.31-.52l.15-.27.07-.13.04-.07.03-.07c.09-.18.19-.36.27-.55.04-.09.09-.19.13-.28l.12-.29c.16-.38.3-.78.42-1.19.03-.1.06-.2.08-.31l.04-.16.03-.16c.01-.05.02-.11.03-.16v-.08s.03-.08.03-.08v-.08s.02-.09.02-.09l.02-.15.03-.3.03-.29.02-.33v-.32c.02-.43,0-.86-.06-1.29-.06-.43-.15-.86-.27-1.27-.12-.42-.28-.82-.46-1.21-.02-.05-.05-.1-.07-.15l-.07-.15c-.05-.1-.1-.19-.15-.28-.11-.19-.22-.37-.34-.55-.24-.36-.49-.7-.77-1.02"/>
    <path class="st0" d="M143.44,71.74c.17.14.35.27.52.4.18.13.36.26.54.38.36.24.74.47,1.12.68.19.11.39.21.58.3.1.05.2.1.3.14.05.02.1.05.15.07l.08.03s.05.02.08.04l.95.39-.25-.99c-.06-.26-.11-.52-.14-.79-.03-.27-.04-.54-.04-.82,0-.28.02-.55.04-.83.03-.28.06-.56.11-.84.04-.28.1-.56.15-.85.06-.28.12-.57.18-.85.06-.29.12-.57.18-.86.06-.29.11-.58.17-.88.05-.29.1-.59.13-.89s.06-.6.08-.9c.01-.3.02-.61,0-.91-.01-.3-.05-.61-.1-.91-.05-.3-.12-.6-.21-.89s-.2-.58-.32-.86c-.13-.28-.27-.54-.43-.8-.16-.26-.33-.5-.52-.74v.02s-.06-.11-.06-.11l-.04-.06s-.02-.04-.04-.05l-.08-.11s-.05-.07-.08-.1l-.08-.1s-.06-.07-.09-.1l-.09-.1s-.06-.06-.09-.1l-.09-.09s-.06-.06-.09-.09c-.06-.06-.13-.12-.19-.18l-.19-.17-.2-.16-.2-.16c-.07-.05-.14-.1-.2-.16-.07-.05-.14-.1-.21-.15-.07-.05-.14-.1-.21-.15-.07-.05-.14-.1-.21-.14-.07-.05-.14-.09-.21-.14-.07-.05-.14-.09-.21-.14-.07-.05-.14-.09-.22-.13l.2.16c.07.05.13.11.2.16.07.05.13.11.2.16l.1.08s.06.05.1.08c.06.06.13.11.19.17.06.06.13.11.19.17.06.06.12.11.18.17l.18.18.18.18.17.18c.06.06.11.12.17.19.03.03.05.06.08.1l.08.1s.05.06.08.1l.08.1s.05.07.07.1l.07.1s.04.07.07.1l.06.1s.02.03.03.05l.03.05.06.11h0s.01.02.01.02c.16.24.31.48.44.74.13.25.25.51.35.77.1.26.18.53.24.81.06.27.11.55.14.83.03.28.04.56.04.84s-.02.56-.05.84c-.03.28-.07.56-.12.84-.05.28-.1.56-.17.84-.06.28-.13.56-.2.84-.07.28-.14.57-.21.85-.07.29-.14.57-.21.86-.07.29-.13.58-.19.88-.06.3-.11.59-.14.9-.04.3-.06.61-.07.92,0,.28,0,.56.02.84-.07-.04-.14-.08-.21-.12-.18-.1-.35-.21-.53-.31-.17-.11-.34-.22-.51-.34-.17-.12-.33-.23-.5-.36-.16-.12-.32-.25-.48-.38-.16-.13-.31-.26-.46-.39l-.11-.1-.06-.05-.06-.05-.11-.1-.11-.11c-.29-.28-.56-.58-.82-.89-.26-.31-.49-.64-.7-.97-.21-.34-.4-.69-.57-1.05-.16-.36-.3-.73-.41-1.11-.11-.38-.19-.77-.24-1.16-.05-.39-.07-.79-.06-1.19v-.3s.03-.29.03-.29c.01-.1.02-.21.03-.31l.03-.31.02-.16v-.07s.02-.07.02-.07c0-.02,0-.05.01-.07v-.07s.03-.1.04-.14l.03-.14.03-.14c.02-.1.05-.19.08-.29.11-.39.24-.77.39-1.15l.12-.28s.02-.05.03-.07l.03-.07.06-.14.06-.14.02-.03.02-.03.03-.07.13-.28.03-.07.04-.07.07-.14.14-.27.15-.27.07-.14s.05-.09.08-.14l.16-.27.08-.13s0,0,0-.01l.04.09.07.16c.05.11.09.22.13.33.09.22.17.44.26.66.04.11.08.22.12.33l.12.33.11.34.11.34.1.34.1.34.1.34.09.34.09.34.08.35.07.35.07.35.06.35c.02.12.04.23.06.35.02.12.03.23.05.35,0,.06.02.12.02.18l.02.18v.09s.02.09.02.09l.02.18c.01.12.02.24.03.35,0,.06.01.12.01.18v.18c.01.06.02.12.02.18v.18s.02.18.02.18v.18c0,.12,0,.24,0,.36,0,.24,0,.48-.01.72,0,.12-.01.24-.02.36l-.02.36.07-.35c.01-.06.02-.12.03-.18l.03-.18c0-.06.02-.12.03-.18l.02-.18c.02-.12.03-.24.04-.36,0-.06.01-.12.02-.18v-.18s.03-.18.03-.18v-.18s.02-.18.02-.18c0-.06,0-.12,0-.18,0-.12,0-.24,0-.36,0-.12,0-.24,0-.36v-.18s0-.09,0-.09v-.09s-.01-.18-.01-.18c0-.06,0-.12,0-.18,0-.12-.01-.24-.02-.36-.01-.12-.02-.24-.03-.36-.01-.12-.02-.24-.04-.36l-.04-.36-.05-.36-.06-.36-.06-.36-.07-.36-.08-.36c-.03-.12-.05-.24-.08-.35l-.09-.35-.09-.35-.1-.35-.1-.35c-.04-.12-.07-.23-.11-.35-.07-.23-.15-.46-.23-.69-.04-.11-.08-.23-.12-.34l-.06-.17-.06-.17c-.08-.23-.18-.45-.27-.68l-.28-.7-.44.63-.37.53s-.06.09-.09.13l-.09.14-.18.27c-.11.18-.23.37-.34.55l-.16.28-.08.14-.04.07-.04.07-.15.29-.04.07-.02.04-.02.04-.07.15-.07.15-.04.07s-.02.05-.03.07l-.13.3c-.17.4-.33.81-.46,1.24-.03.11-.07.21-.09.32l-.04.16-.04.17c-.01.05-.02.11-.04.17l-.02.08s0,.06-.02.09v.09s-.03.09-.03.09l-.02.16-.04.32-.04.32-.03.34-.02.34c-.02.45,0,.9.05,1.35.05.45.14.89.26,1.33.12.43.27.86.46,1.27.02.05.05.1.07.15l.07.15c.02.05.05.1.08.15.03.05.05.1.08.15.11.2.22.39.34.58.24.38.5.74.78,1.08.28.34.58.67.9.98l.12.11.12.11.06.06.06.06.12.11c.17.14.33.29.51.42"/>
    <path class="st0" d="M180.12,127.71c.02.1.02.2,0,.31-2.93,13.7-9.78,26.16-19.81,36.02-10.27,10.1-23.22,16.78-37.45,19.33-7.77,1.39-15.64,1.5-23.38.31-7.48-1.14-14.71-3.47-21.48-6.91-.39-.2-.55-.68-.35-1.07.2-.39.68-.55,1.07-.35,6.62,3.36,13.69,5.64,21,6.76,7.56,1.16,15.25,1.05,22.86-.31,13.91-2.49,26.57-9.02,36.61-18.9,9.8-9.64,16.5-21.82,19.37-35.22.09-.43.52-.7.94-.61.33.07.56.33.62.64"/>
    <path class="st0" d="M171.32,51.87c.2-.31.39-.61.58-.93.19-.31.36-.63.54-.95.34-.64.66-1.3.95-1.96.14-.33.28-.67.41-1.01.06-.17.13-.34.19-.52.03-.09.06-.17.09-.26l.04-.13s.03-.09.04-.15l.49-1.63-1.6.57c-.42.15-.85.27-1.29.36-.44.09-.89.16-1.35.2-.46.04-.92.06-1.39.06-.47,0-.94-.01-1.41-.04-.47-.03-.95-.07-1.43-.11-.48-.05-.96-.1-1.44-.15-.48-.05-.97-.11-1.46-.16-.49-.05-.98-.1-1.47-.13s-.99-.06-1.49-.07c-.5-.01-1,0-1.51.02-.5.02-1.01.07-1.51.15-.5.07-1,.17-1.49.31-.49.13-.97.29-1.44.49-.47.19-.93.42-1.36.67-.44.25-.86.54-1.26.84-.4.31-.78.63-1.14.98l.03-.02-.17.14-.09.07s-.06.05-.08.07l-.16.15c-.05.05-.11.1-.16.15l-.15.16c-.05.05-.1.1-.15.16l-.14.16c-.05.05-.1.11-.14.16l-.14.17c-.05.06-.09.11-.14.17-.09.11-.18.23-.26.34l-.25.35-.24.35-.23.36c-.08.12-.15.24-.23.36-.07.12-.14.24-.22.36-.07.12-.14.25-.21.37-.07.12-.14.25-.2.37s-.13.25-.2.37c-.07.12-.13.25-.19.38-.06.13-.13.25-.19.38l.23-.35c.08-.12.15-.24.23-.35.08-.12.16-.23.24-.35l.12-.17c.04-.06.08-.12.12-.17.08-.11.16-.23.25-.34.08-.11.16-.23.25-.34.09-.11.17-.22.26-.33l.26-.33.27-.32.27-.31c.09-.1.19-.2.28-.31.05-.05.1-.1.14-.15l.15-.15s.1-.1.15-.14l.15-.14s.1-.09.15-.14l.16-.13c.05-.05.11-.08.16-.13l.16-.12s.05-.04.08-.06l.08-.06.16-.11h0s.02-.02.02-.02c.37-.3.75-.58,1.15-.84.39-.26.8-.49,1.23-.7.42-.21.85-.38,1.3-.53.44-.15.89-.27,1.35-.36.46-.09.92-.16,1.38-.2s.93-.06,1.4-.06c.47,0,.94.02,1.42.06s.95.08,1.42.14.95.12,1.43.19c.48.07.96.14,1.44.22.48.07.97.14,1.46.21.49.07.98.12,1.48.17s1,.08,1.51.09c.51.01,1.02,0,1.53-.03.46-.03.93-.08,1.39-.16-.05.12-.11.25-.16.37-.14.31-.28.62-.44.92-.15.3-.31.6-.47.9-.16.3-.33.59-.51.88-.17.29-.36.57-.54.86-.19.28-.38.56-.58.83l-.15.2-.08.1-.08.1-.15.2-.16.2c-.42.52-.87,1.02-1.34,1.49s-.97.91-1.49,1.32c-.52.41-1.07.78-1.64,1.11-.57.33-1.16.62-1.77.86-.61.24-1.24.44-1.88.58-.64.15-1.29.25-1.95.3l-.49.03h-.48c-.17.01-.35.01-.53.01h-.52s-.26-.01-.26-.01h-.11s-.12,0-.12,0c-.04,0-.08,0-.12,0h-.12c-.08-.02-.16-.02-.24-.03l-.24-.03-.24-.03c-.16-.02-.33-.05-.49-.08-.66-.12-1.31-.28-1.96-.47l-.49-.15s-.08-.02-.12-.04l-.12-.04-.24-.08-.24-.08-.06-.02-.06-.02-.12-.04-.48-.18-.12-.04-.12-.05-.24-.1-.48-.19-.47-.21-.24-.1c-.08-.03-.16-.07-.24-.1l-.47-.22-.23-.11s-.01,0-.02-.01l.15-.08.26-.14c.17-.09.35-.18.52-.28.35-.18.7-.36,1.05-.53.18-.09.35-.17.53-.26l.53-.25.54-.24.54-.23.54-.23.55-.22.55-.21.55-.2.56-.2.56-.19.56-.18.56-.17.57-.16c.19-.05.38-.1.57-.15.19-.05.38-.09.57-.14.1-.02.19-.04.29-.07l.29-.06.14-.03.14-.03.29-.06c.19-.04.39-.07.58-.11.1-.02.19-.04.29-.05l.29-.05c.1-.02.19-.03.29-.05l.29-.04.29-.04.29-.03c.2-.02.39-.05.59-.06.39-.04.79-.07,1.19-.09.2,0,.4-.02.6-.03l.6-.02-.59-.05c-.1,0-.2-.01-.3-.02l-.3-.02c-.1,0-.2,0-.3-.01h-.3c-.2-.02-.4-.01-.6-.02-.1,0-.2,0-.3,0h-.3s-.3.01-.3.01h-.3s-.3.03-.3.03c-.1,0-.2.01-.3.02-.2.01-.4.03-.6.05-.2.02-.4.04-.6.06l-.3.03-.15.02-.15.02-.3.04c-.1.01-.2.03-.3.04-.2.03-.4.06-.6.1-.2.04-.4.07-.59.11-.2.04-.39.08-.59.12l-.59.13-.59.14-.58.15-.58.16-.58.17-.58.18c-.19.06-.38.13-.57.19l-.57.2-.57.21-.56.22-.56.23c-.19.08-.37.15-.56.23-.37.16-.74.32-1.1.49-.18.08-.37.17-.55.26l-.27.13-.27.13c-.36.18-.72.36-1.08.55l-1.12.58,1.12.62.94.52c.08.04.16.08.24.13l.24.12.48.25c.32.16.65.31.97.47l.49.22.25.11.12.05.13.05.5.2.13.05.06.03.06.02.26.09.25.09.13.05s.08.03.13.05l.52.17c.69.22,1.4.42,2.12.56.18.04.36.07.55.1l.28.04.28.04c.09.01.19.02.28.03h.14s.1.02.14.03h.15s.15.02.15.02h.26s.53.03.53.03h.53s.57,0,.57,0l.56-.03c.74-.05,1.48-.15,2.22-.3.73-.16,1.45-.37,2.15-.64.7-.27,1.38-.59,2.03-.96.08-.04.16-.09.24-.14l.24-.14c.08-.05.16-.1.24-.15.08-.05.16-.1.23-.15.31-.21.61-.42.9-.65.59-.46,1.14-.95,1.66-1.47.52-.52,1.01-1.07,1.47-1.64l.17-.22.17-.22.08-.11.08-.11.16-.22c.21-.3.42-.6.62-.9"/>
    <path class="st0" d="M143.02,54.05c-5.97-2.49-6.53-11.29-4.03-16.44,2.44-5.02,7.6-8.15,13.18-8-4.32,6.72,1.44,14.91-8.08,22.26,6.78-8.05,2.69-15.04,5.68-20.41-4.03.51-6.97,2.53-8.94,6.08-1.97,3.55-2.35,7.65-.65,11.33-.21-5.43,2.29-10.62,6.67-13.84-4.96,5.17-6.21,12.25-3.83,19.02"/>
    <path class="st0" d="M63.4,177.97c.31.06.62.11.93.15.31.04.62.08.93.11.62.06,1.24.09,1.87.1.31,0,.62,0,.94-.01.16,0,.31-.01.47-.02.08,0,.16-.01.24-.02h.12s.08-.02.13-.02l1.45-.16-.98-1.07c-.26-.28-.49-.58-.71-.9-.22-.32-.42-.65-.6-1-.18-.35-.35-.71-.51-1.07-.16-.37-.3-.74-.43-1.13-.13-.38-.26-.77-.38-1.16-.12-.39-.24-.79-.36-1.19-.12-.4-.24-.8-.36-1.2-.12-.4-.25-.81-.38-1.21-.13-.4-.28-.8-.44-1.2-.16-.4-.33-.79-.51-1.18-.19-.39-.39-.77-.62-1.14-.22-.37-.47-.73-.74-1.08-.27-.34-.55-.67-.86-.98-.31-.31-.64-.59-.98-.86-.34-.26-.71-.5-1.08-.71-.37-.21-.76-.4-1.15-.58l.03.02-.17-.09-.08-.05s-.06-.03-.08-.04l-.17-.08c-.06-.03-.11-.05-.17-.08l-.17-.07c-.06-.02-.12-.05-.17-.07l-.18-.06c-.06-.02-.12-.04-.18-.06l-.18-.05c-.06-.02-.12-.04-.18-.05-.12-.03-.24-.06-.36-.09l-.36-.08-.36-.07-.36-.07c-.12-.02-.24-.04-.36-.06-.12-.02-.24-.03-.36-.05-.12-.02-.24-.03-.36-.04-.12-.02-.24-.03-.36-.04-.12-.01-.24-.02-.36-.03s-.24-.02-.36-.03c-.12,0-.24-.01-.36-.02l.36.06c.12.02.24.04.36.07.12.02.24.05.35.07l.18.04c.06.01.12.02.18.04.12.03.23.05.35.08.12.03.23.06.35.09.12.03.23.06.35.09l.35.1.34.1.34.11c.11.04.22.08.34.12.06.02.11.04.17.06l.16.07c.06.02.11.05.16.07l.16.07c.05.02.11.05.16.08l.16.08c.05.03.1.06.15.08l.15.09s.05.03.07.05l.07.05.14.09h0s.02.02.02.02c.36.19.71.4,1.04.63.34.23.66.47.96.74.3.26.59.55.85.85.26.3.51.62.73.94.23.33.43.67.62,1.03.19.35.36.72.51,1.09.16.37.3.75.43,1.14.13.38.25.77.36,1.17.11.39.22.79.32,1.19.1.4.21.8.31,1.21.1.41.21.81.32,1.22.11.41.23.82.36,1.23.13.41.27.82.43,1.22.16.41.33.81.53,1.2.18.36.37.71.59,1.05-.12,0-.23,0-.35,0-.29,0-.58-.02-.87-.04-.29-.02-.58-.05-.87-.08-.29-.03-.58-.07-.86-.11-.29-.04-.57-.09-.86-.15-.28-.05-.57-.12-.85-.18l-.21-.05-.1-.03-.1-.03-.21-.06-.21-.06c-.55-.16-1.1-.35-1.62-.57-.53-.22-1.04-.46-1.54-.74-.49-.28-.97-.59-1.42-.93-.45-.34-.87-.71-1.27-1.11-.39-.4-.76-.83-1.09-1.29-.33-.46-.62-.94-.88-1.44l-.19-.38-.17-.38c-.06-.14-.11-.28-.17-.42l-.17-.41-.08-.21-.04-.09-.03-.1s-.02-.06-.03-.1l-.03-.1c-.02-.07-.04-.13-.06-.2l-.06-.2-.05-.2c-.04-.14-.07-.28-.1-.41-.13-.56-.22-1.13-.28-1.71l-.05-.43s0-.07,0-.11v-.11s-.02-.22-.02-.22l-.02-.22v-.05s0-.05,0-.05v-.11s-.03-.44-.03-.44v-.11s0-.11,0-.11v-.22s-.01-.44-.01-.44v-.44s0-.22,0-.22c0-.07,0-.15,0-.22l.02-.44v-.22s0-.01,0-.02l.11.09.2.16c.13.11.26.21.39.32.26.21.52.43.77.65.13.11.25.22.38.33l.37.34.37.34.36.35.36.35.36.36.35.36.35.37.34.37.33.38.33.38.32.39.32.39c.1.13.21.27.31.4.1.13.2.27.3.41.05.07.1.14.15.21l.15.21.07.1.07.1.14.21c.1.14.19.28.28.42.05.07.09.14.14.21l.13.22c.04.07.09.14.13.22l.13.22.13.22.13.22c.08.15.17.29.25.45.16.3.32.6.47.91.07.15.15.31.22.46l.21.47-.16-.49c-.03-.08-.06-.16-.08-.24l-.09-.24c-.03-.08-.06-.16-.09-.24l-.09-.24c-.06-.16-.13-.32-.19-.48-.03-.08-.06-.16-.1-.24l-.11-.23-.11-.23-.11-.23-.11-.23c-.04-.08-.08-.15-.12-.23-.08-.15-.16-.31-.24-.46-.08-.15-.16-.3-.25-.45l-.13-.22-.06-.11-.07-.11-.13-.22c-.04-.07-.09-.15-.13-.22-.09-.15-.18-.29-.28-.44-.09-.14-.19-.29-.28-.43-.1-.14-.19-.29-.29-.43l-.3-.42-.31-.42-.31-.41-.32-.41-.33-.4-.34-.39c-.11-.13-.23-.26-.34-.39l-.35-.38-.35-.38-.36-.37-.36-.37c-.12-.12-.25-.24-.37-.36-.25-.24-.5-.48-.75-.71-.13-.12-.26-.23-.39-.35l-.19-.17-.2-.17c-.26-.23-.53-.45-.79-.67l-.83-.69-.12,1.09-.1.91c0,.08-.01.15-.02.23l-.02.23-.04.46c-.02.31-.03.61-.05.92v.46s-.01.23-.01.23v.12s0,.12,0,.12v.46s0,.12,0,.12v.06s0,.06,0,.06v.23s.02.23.02.23v.12s0,.08.01.12l.03.47c.05.62.14,1.24.26,1.86.03.16.06.31.1.47l.06.23.06.23c.02.08.05.16.07.23l.04.12s.03.08.04.12l.04.12.04.12.08.21.16.43.16.42.19.45.2.43c.28.57.61,1.12.98,1.65.37.53.78,1.02,1.22,1.49.44.46.93.89,1.43,1.28.06.05.13.1.19.14l.19.14c.06.05.13.09.2.14.07.04.13.09.2.13.27.17.54.34.82.5.55.31,1.13.59,1.71.83.59.24,1.18.45,1.79.62l.23.06.23.06.11.03.11.03.23.06c.31.07.61.14.92.19"/>
    <path class="st0" d="M50.98,158.49c-.48-5.34,5.75-9.15,10.5-9.31,4.62-.15,8.91,2.42,10.96,6.57-6.6-.57-10.37,6.82-19.44,2.68,8.52,1.86,12.06-3.84,17.15-3.73-1.93-2.75-4.55-4.13-7.91-4.2-3.36-.07-6.52,1.23-8.56,3.9,3.9-2.25,8.66-2.43,12.72-.46-5.7-1.63-11.38.18-15.42,4.55"/>
    <path class="st0" d="M51.47,155.58c1.09,4.94-4.3,9.25-8.72,9.95-4.31.69-8.62-1.21-11.03-4.85,6.24-.25,8.9-7.61,17.87-4.81-8.19-.73-10.83,5.03-15.61,5.52,2.13,2.35,4.74,3.33,7.9,2.99,3.16-.33,5.95-1.92,7.55-4.67-3.38,2.57-7.82,3.3-11.85,1.94,5.53.85,10.63-1.52,13.89-6.08"/>
    <path class="st0" d="M134.31,79.38c-.2-.51-.51-.97-.94-1.38-1.16-1.13-2.85-1.58-4.24-1.11-.71.21-1.37.69-2.08,1.21l-.57.41c-2.68,1.93-6.29,2.56-9.87,1.75-1.15-.22-2.15-.71-3.1-1.25,1.34-1.12,3.12-1.84,5-1.97.94-.11,1.83.07,2.7.24.93.18,1.81.35,2.6.11.92-.26,1.59-.96,1.79-1.88.21-.94-.11-1.9-.87-2.6-.28-.27-.62-.49-1.02-.65-1.09-.43-2.33-.3-3.11.35-.4.31-.7.79-1.01,1.3l-.25.41c-1.18,1.89-3.34,3.19-5.89,3.59.05-.38.1-.76.19-1.12.74-3.16,3-6.06,5.99-7.73,1.13-.7,2.35-.99,3.54-1.27,1.28-.3,2.48-.59,3.35-1.38,1.02-.89,1.47-2.23,1.22-3.59-.26-1.38-1.19-2.49-2.54-2.98-.5-.2-1.06-.3-1.64-.27-1.62.06-3.11.97-3.73,2.31-.34.66-.45,1.47-.56,2.34l-.1.7c-.46,3.27-2.49,6.33-5.55,8.37-.95.67-1.97,1.07-3,1.38.01-.12,0-.23.03-.35.34-2.49,1.65-4.62,3.61-5.82l.42-.25c.52-.31,1.01-.61,1.32-1,.66-.76.77-1.95.3-2.99-.17-.38-.41-.7-.7-.96-.74-.71-1.75-1-2.73-.78-.95.22-1.67.87-1.92,1.76-.23.76-.03,1.61.18,2.5.2.83.4,1.69.31,2.59-.08,1.57-.65,3.06-1.53,4.29-.72-1.1-1.41-2.25-1.73-3.64-.95-3.55-.46-7.19,1.36-9.95l.39-.59c.48-.72.94-1.41,1.12-2.13.42-1.41-.1-3.08-1.28-4.2-.43-.41-.9-.7-1.41-.88-1.33-.52-2.77-.31-3.87.56-1.08.85-1.63,2.16-1.45,3.5.13,1.16.84,2.18,1.6,3.26.71,1,1.43,2.03,1.82,3.3.29.83.49,1.68.61,2.54h.07v.81c.04.63.05,1.26,0,1.88v27.85h-.04c-.04,1.02-.17,2.04-.45,3.07-.39,1.66-1.29,2.99-2.16,4.28-.35.52-.71,1.04-.98,1.52-1.14,2.32-.14,4.18,1.07,5.07,1.35.99,3.5,1.24,5.27-.44.11-.11.22-.22.34-.36.95-1.11,1.26-2.69.79-4.03-.21-.64-.63-1.24-1.06-1.89-.34-.5-.67-1-.94-1.51-1.53-2.86-1.75-6.53-.6-9.77.33-1.08.9-1.99,1.5-2.85.86,1.81,1.12,3.74.65,5.47l-.13.46c-.16.57-.31,1.12-.26,1.62.05,1.02.79,2.02,1.85,2.53.38.18.78.29,1.17.31,1.03.09,1.95-.34,2.5-1.12.54-.77.6-1.74.16-2.59-.36-.74-1.08-1.28-1.85-1.84-.71-.52-1.45-1.06-2.01-1.83-.85-1.06-1.42-2.29-1.72-3.55.22-.31.43-.62.62-.92.95.3,1.89.68,2.76,1.3,3.06,2.03,5.09,5.09,5.55,8.37l.1.7c.12.87.22,1.68.56,2.34.62,1.34,2.11,2.25,3.73,2.31.59.02,1.14-.07,1.64-.27,1.35-.49,2.28-1.6,2.54-2.98.25-1.36-.2-2.7-1.22-3.59-.86-.79-2.07-1.08-3.35-1.38-1.19-.28-2.42-.58-3.54-1.27-3-1.67-5.26-4.57-5.99-7.73-.1-.4-.15-.83-.21-1.25,1.58.3,3.13.99,4.4,2.05.76.58,1.28,1.32,1.77,2.03.54.77,1.04,1.49,1.8,1.88.86.47,1.87.47,2.71,0,.86-.47,1.35-1.33,1.33-2.32,0-.37-.08-.76-.25-1.13-.46-1.04-1.46-1.82-2.52-1.93-.53-.08-1.1.03-1.71.15l-.49.09c-2.31.42-4.88-.23-7.03-1.78,0,0-.02-.02-.03-.02.21-.15.43-.31.65-.44,2.79-1.64,6.44-2.01,9.72-.98,1.28.34,2.34,1.02,3.36,1.69,1.1.72,2.14,1.39,3.31,1.47,1.34.12,2.63-.47,3.43-1.59.82-1.14.98-2.58.41-3.9"/>
    <path class="st0" d="M96.46,77.99c-1.14-1.96-5.67-2.39-5.76.28,1.19,3.02-1.62,6.22-.95,1.03-.15-1.96-2.02-2.74-3.56-3.18-.38-2.17,2.93-.29,3.63.61,2.24-3.32,9.67-.11,6.64,1.26M101.86,86.48c0-.24.08-.79-.28-.45-.73,1.53-6.53,1.95-3.95.1,3.06.21,4.02-1.65,4.24-4.09.25-2.83-.11-16.24-.11-20.06-.11-3.8-5.87-4.83-7.44-1.47.1,2.13-4.15-.13-6,3.91-.83,2.07.09,1.69,1.7,1.87,1.33.19,2.5.75,3.51,1.6.99-1.45,1.13-2.45.43-3.99,1.66-.84,1.14,2.56,4.01,1.66.24-.2.35,0,.44.15,1.06,1.68-2.13.87-2.91.87-1.57,1.86-.77,4.55,1.31,5.62-.5,2.44-3.23-1.28-3.2-2.59-4.66-6.06-13.63,1.18-9.22,7.14-3.22,1.23-3.99,5.93-1.32,8.1,1.07.11,1.95-1.82,3.23-1.99.51-.55.66.61.67.93-2.77,1.04-4.06,3.73-3.61,6.65.26,1.97,1.83,3.54,3.61,4.27.63-1.11,1.22-2.33,2.5-2.83.67-.33,1.39-.45,2.16-.49-.04-1.08.65-3.6,1.59-1.77-1.15,2.26.5,5.07,3.04,5.08.67.05,1.94-.44,2.26.33-.34,1.56-2.64.04-3.23,1.92-.64,2.18-2.08.17-.66-1.11.15-.19.09-.27-.11-.35-1.22-.47-2.05-1.48-2.53-2.65-3.25-1.24-5.15,3.8-3.07,6.06,1.51,2.65,4.76,1.03,5.25,2.65,1.06,2.84,5.21,3.24,6.95.83,1.81-4.88.31-10.7.78-15.9"/>
    <path class="st0" d="M180.16,114.03c-.16,9.44-2.18,18.56-5.99,27.11-.09.2-.18.39-.27.58.45.3.9.6,1.33.92.13-.29.28-.57.4-.86,3.9-8.75,5.96-18.08,6.13-27.73.2-11.4-2.23-22.35-7.21-32.53-.19-.4-.67-.56-1.07-.37s-.56.67-.37,1.07c4.87,9.95,7.25,20.65,7.05,31.8"/>
    <path class="st0" d="M142.31,52.2c.03.17,0,.36-.09.52-.21.39-.69.53-1.08.32-6.84-3.75-14.19-6.3-21.84-7.6-7.92-1.34-15.98-1.3-23.96.13-9.28,1.66-17.95,5.09-25.78,10.18-7.56,4.92-14.02,11.19-19.2,18.63-5.18,7.44-8.82,15.67-10.82,24.47-2.07,9.11-2.27,18.43-.61,27.71,1.96,10.96,6.34,20.98,13.01,29.8.27.35.2.85-.15,1.11-.35.27-.85.2-1.11-.15-6.82-9.01-11.3-19.27-13.31-30.47-1.7-9.49-1.49-19.02.63-28.34,2.04-9,5.76-17.42,11.06-25.03,5.3-7.61,11.91-14.02,19.64-19.06,8.01-5.22,16.88-8.72,26.36-10.42,8.16-1.46,16.41-1.5,24.51-.13,7.83,1.33,15.34,3.94,22.34,7.77.22.12.36.33.4.56"/>
    <path class="st0" d="M34.33,130.93c-.29-1.26-.54-2.44-.75-3.61-1.82-10-1.59-20.05.67-29.87,2.19-9.48,6.18-18.36,11.86-26.38,5.68-8.02,12.77-14.78,21.06-20.09,8.59-5.5,18.1-9.19,28.27-10.98,4.49-.79,9.06-1.19,13.57-1.19,4.24,0,8.52.35,12.71,1.05.6.1,1.19.22,1.78.33.01.3.02.6.04.89-.66-.13-1.32-.26-1.98-.37-4.14-.69-8.36-1.04-12.55-1.04-4.46,0-8.97.4-13.41,1.18-10.05,1.77-19.45,5.42-27.93,10.85-8.2,5.25-15.2,11.93-20.81,19.85-5.61,7.92-9.56,16.7-11.72,26.08-2.24,9.71-2.46,19.64-.66,29.53.22,1.2.47,2.42.76,3.65-.3.04-.6.07-.89.11"/>
    <path class="st0" d="M110.26,188.66c-7.48,0-14.9-1.07-22.04-3.19-.58-.17-1.16-.36-1.73-.55.03-.3.05-.59.07-.89.64.21,1.28.41,1.92.6,7.05,2.09,14.38,3.15,21.77,3.15,1.33,0,2.68-.03,4.01-.1,10.19-.52,19.97-2.99,29.05-7.34,8.78-4.2,16.54-9.97,23.09-17.15,6.54-7.18,11.53-15.4,14.83-24.44,3.41-9.36,4.85-19.19,4.28-29.22-.07-1.21-.17-2.46-.31-3.71.1,0,.7,0,.9,0,.14,1.28.23,2.48.3,3.67.58,10.14-.88,20.09-4.33,29.56-3.34,9.15-8.38,17.47-15,24.73-6.62,7.26-14.48,13.1-23.36,17.35-9.19,4.4-19.09,6.9-29.4,7.43-1.35.07-2.71.1-4.06.1h0Z"/>
  </g>
  <path class="st0" d="M133.52,139.37h-1v1.67h.77c.73,0,1.21-.21,1.21-.88s-.49-.8-.97-.8M134.57,143.07l-1.18-1.75h-.88v1.75h-.33v-4h1.33c.81,0,1.31.38,1.31,1.11s-.54,1.05-1.07,1.08l1.22,1.8h-.41ZM133.41,144.38c1.8,0,3.28-1.49,3.28-3.28s-1.48-3.28-3.28-3.28-3.31,1.48-3.31,3.28,1.49,3.28,3.31,3.28M133.41,137.51c1.99,0,3.61,1.59,3.61,3.59s-1.62,3.58-3.61,3.58-3.64-1.57-3.64-3.58,1.64-3.59,3.64-3.59"/>
</svg>